<?xml version="1.0" encoding="UTF-8" standalone="no"?>
<!-- Created with Inkscape (http://www.inkscape.org/) -->

<svg
   xmlns:dc="http://purl.org/dc/elements/1.1/"
   xmlns:cc="http://creativecommons.org/ns#"
   xmlns:rdf="http://www.w3.org/1999/02/22-rdf-syntax-ns#"
   xmlns:svg="http://www.w3.org/2000/svg"
   xmlns="http://www.w3.org/2000/svg"
   xmlns:sodipodi="http://sodipodi.sourceforge.net/DTD/sodipodi-0.dtd"
   xmlns:inkscape="http://www.inkscape.org/namespaces/inkscape"
   width="29.998934"
   height="29.912931"
   id="fireIcon"
   version="1.1"
   inkscape:version="0.48.4 r9939"
   sodipodi:docname="fire.svg">
  <defs
     id="defs4">
    <linearGradient
       id="linearGradient3763">
      <stop
         style="stop-color:#008000;stop-opacity:1;"
         offset="0"
         id="stop3765" />
      <stop
         id="stop3771"
         offset="1"
         style="stop-color:#805d00;stop-opacity:1;" />
      <stop
         style="stop-color:#008000;stop-opacity:1;"
         offset="1"
         id="stop3767" />
    </linearGradient>
  </defs>
  <sodipodi:namedview
     id="base"
     pagecolor="#ffffff"
     bordercolor="#666666"
     borderopacity="1.0"
     inkscape:pageopacity="0.0"
     inkscape:pageshadow="2"
     inkscape:zoom="0.70710678"
     inkscape:cx="-249.82866"
     inkscape:cy="238.49008"
     inkscape:document-units="px"
     inkscape:current-layer="fireIconShape"
     showgrid="false"
     fit-margin-left="0"
     fit-margin-right="0"
     fit-margin-bottom="0"
     fit-margin-top="0"
     inkscape:window-width="1301"
     inkscape:window-height="744"
     inkscape:window-x="65"
     inkscape:window-y="24"
     inkscape:window-maximized="1">
    <inkscape:grid
       type="xygrid"
       id="grid2985"
       empspacing="5"
       visible="true"
       enabled="true"
       snapvisiblegridlinesonly="true"
       originx="-496.71577px"
       originy="-536.70689px" />
  </sodipodi:namedview>
  <metadata
     id="metadata7">
    <rdf:RDF>
      <cc:Work
         rdf:about="">
        <dc:format>image/svg+xml</dc:format>
        <dc:type
           rdf:resource="http://purl.org/dc/dcmitype/StillImage" />
        <dc:title></dc:title>
      </cc:Work>
    </rdf:RDF>
  </metadata>
  <g
     inkscape:label="Layer 1"
     inkscape:groupmode="layer"
     id="fireIconLayer"
     transform="translate(-496.71577,-485.74236)">
    <g
       id="fireIconShape"
       transform="translate(-3.28423,-7.7087407e-7)">
      <g
         inkscape:label="Layer 1"
         id="layer1"
         transform="translate(34.237181,6.559899)" />
      <text
         sodipodi:linespacing="125%"
         id="text4124"
         y="507.58279"
         x="411.55862"
         style="font-size:40px;font-style:normal;font-variant:normal;font-weight:normal;font-stretch:normal;line-height:125%;letter-spacing:0px;word-spacing:0px;fill:#000000;fill-opacity:1;stroke:none;font-family:Exo;-inkscape-font-specification:Exo"
         xml:space="preserve"><tspan
           y="507.58279"
           x="411.55862"
           id="tspan4126"
           sodipodi:role="line" /></text>
      <g
         id="g3202"
         transform="matrix(1.1291582,0,0,1.1258012,-64.579097,-64.875555)">
        <path
           transform="matrix(1.265165,0,0,1.265165,-131.94992,-133.19605)"
           d="m 520,502.36218 c 0,5.52285 -4.47715,10 -10,10 -5.52285,0 -10,-4.47715 -10,-10 0,-5.52284 4.47715,-10 10,-10 5.52285,0 10,4.47716 10,10 z"
           sodipodi:ry="10"
           sodipodi:rx="10"
           sodipodi:cy="502.36218"
           sodipodi:cx="510"
           id="fireIconAccentCresent"
           style="fill:#cc0000;fill-opacity:1;stroke:#ff4444;stroke-opacity:1"
           sodipodi:type="arc" />
        <path
           sodipodi:type="arc"
           style="fill:#ff4444;fill-opacity:1;stroke:none"
           id="path3760"
           sodipodi:cx="510"
           sodipodi:cy="502.36218"
           sodipodi:rx="10"
           sodipodi:ry="10"
           d="m 520,502.36218 c 0,5.52285 -4.47715,10 -10,10 -5.52285,0 -10,-4.47715 -10,-10 0,-5.52284 4.47715,-10 10,-10 5.52285,0 10,4.47716 10,10 z"
           transform="translate(0,0.01281738)" />
        <path
           style="fill:#ffffff;fill-opacity:1;stroke:none"
           d="m 510.28213,494.61319 c 0,0 -0.13704,0.13705 -0.19754,0.2256 -0.1727,0.32937 -0.67718,2.24928 -0.67718,3.24474 0,0.99554 -0.2821,2.37014 -0.2821,2.37014 0,0 -0.77791,0.89071 -1.10035,0.0565 -0.35903,-0.92854 -0.90294,-3.97838 -0.90294,-3.97838 0,0 -0.76586,2.25021 -0.90286,3.97838 -0.14545,1.83597 -0.73364,5.13521 -0.73364,5.13521 0,2.49327 2.02121,4.51447 4.51448,4.51447 2.49327,0 4.51448,-2.0212 4.51448,-4.51447 l -0.5361,-5.3045 -0.45143,-2.17259 c 0,0 -0.0765,-1.04471 -0.33859,-0.7336 -0.26205,0.31094 -0.42321,1.04398 -0.42321,1.04398 0,0 -0.98757,2.03647 -1.55187,1.6365 -0.56431,-0.3999 -0.31054,-1.35437 -0.31054,-1.35437 0,0 -0.44338,-3.38863 -0.42322,-3.92192 -0.0805,-0.35542 -0.19755,-0.2256 -0.19755,-0.2256 z"
           id="path4177"
           inkscape:connector-curvature="0" />
      </g>
    </g>
  </g>
</svg>
