<?xml version="1.0" encoding="UTF-8" standalone="no"?>
<!-- Created with Inkscape (http://www.inkscape.org/) -->

<svg
   xmlns:dc="http://purl.org/dc/elements/1.1/"
   xmlns:cc="http://creativecommons.org/ns#"
   xmlns:rdf="http://www.w3.org/1999/02/22-rdf-syntax-ns#"
   xmlns:svg="http://www.w3.org/2000/svg"
   xmlns="http://www.w3.org/2000/svg"
   xmlns:sodipodi="http://sodipodi.sourceforge.net/DTD/sodipodi-0.dtd"
   xmlns:inkscape="http://www.inkscape.org/namespaces/inkscape"
   width="765"
   height="990"
   id="svg3104"
   version="1.1"
   inkscape:version="0.48.4 r9939"
   sodipodi:docname="Master of the Elements Poster.svg"
   inkscape:export-filename="/home/maxwell/Desktop/Hackathon/Master of the Elements Poster.png"
   inkscape:export-xdpi="90"
   inkscape:export-ydpi="90">
  <defs
     id="defs3">
    <filter
       color-interpolation-filters="sRGB"
       id="filter3826"
       inkscape:collect="always">
      <feGaussianBlur
         id="feGaussianBlur3828"
         stdDeviation="0.22091989"
         inkscape:collect="always" />
    </filter>
    <linearGradient
       id="linearGradient3763">
      <stop
         id="stop3765"
         offset="0"
         style="stop-color:#008000;stop-opacity:1;" />
      <stop
         style="stop-color:#805d00;stop-opacity:1;"
         offset="1"
         id="stop3771" />
      <stop
         id="stop3767"
         offset="1"
         style="stop-color:#008000;stop-opacity:1;" />
    </linearGradient>
  </defs>
  <sodipodi:namedview
     inkscape:document-units="mm"
     id="base"
     pagecolor="#ffffff"
     bordercolor="#666666"
     borderopacity="1.0"
     inkscape:pageopacity="0.0"
     inkscape:pageshadow="2"
     inkscape:zoom="0.49497475"
     inkscape:cx="312.64789"
     inkscape:cy="510.72315"
     inkscape:current-layer="layer1"
     showgrid="false"
     units="px"
     objecttolerance="10000"
     inkscape:window-width="1301"
     inkscape:window-height="744"
     inkscape:window-x="65"
     inkscape:window-y="24"
     inkscape:window-maximized="1">
    <inkscape:grid
       type="xygrid"
       id="grid3110"
       empspacing="5"
       visible="true"
       enabled="true"
       snapvisiblegridlinesonly="true" />
  </sodipodi:namedview>
  <metadata
     id="metadata4">
    <rdf:RDF>
      <cc:Work
         rdf:about="">
        <dc:format>image/svg+xml</dc:format>
        <dc:type
           rdf:resource="http://purl.org/dc/dcmitype/StillImage" />
        <dc:title></dc:title>
      </cc:Work>
    </rdf:RDF>
  </metadata>
  <g
     inkscape:label="Layer 1"
     inkscape:groupmode="layer"
     id="layer1"
     transform="translate(0,-62.3622)">
    <text
       xml:space="preserve"
       style="font-size:140.09942627px;font-style:normal;font-variant:normal;font-weight:normal;font-stretch:normal;line-height:125%;letter-spacing:0px;word-spacing:0px;fill:#000000;fill-opacity:1;stroke:none;font-family:Exo;-inkscape-font-specification:Exo"
       x="380.80005"
       y="718.85162"
       id="text2987"
       sodipodi:linespacing="125%"><tspan
         sodipodi:role="line"
         x="380.80005"
         y="718.85162"
         style="font-size:112.07954407px;font-style:normal;font-variant:normal;font-weight:normal;font-stretch:normal;text-align:center;text-anchor:middle;fill:#9933cc;fill-opacity:1;font-family:Roboto Slab;-inkscape-font-specification:Roboto Slab"
         id="tspan3771">ZALIAS</tspan><tspan
         sodipodi:role="line"
         x="392.96298"
         y="845.03705"
         style="font-size:98.06959534px;font-style:normal;font-variant:normal;font-weight:normal;font-stretch:normal;text-align:center;text-anchor:middle;fill:#aa66cc;fill-opacity:1;font-family:Roboto Slab;-inkscape-font-specification:Roboto Slab"
         id="tspan3779">MASTER </tspan><tspan
         sodipodi:role="line"
         x="380.80005"
         y="939.79608"
         style="font-size:70.04971313px;font-style:normal;font-variant:normal;font-weight:normal;font-stretch:normal;text-align:center;text-anchor:middle;fill:#aa66cc;fill-opacity:1;font-family:Roboto Slab;-inkscape-font-specification:Roboto Slab"
         id="tspan3773">OF THE</tspan><tspan
         sodipodi:role="line"
         x="380.80005"
         y="1027.3583"
         style="font-size:70.04971313px;font-style:normal;font-variant:normal;font-weight:normal;font-stretch:normal;fill:#aa66cc;fill-opacity:1;font-family:Roboto Slab;-inkscape-font-specification:Roboto Slab"
         id="tspan3775"><tspan
   style="font-size:70.04971313px;font-weight:normal;text-align:center;text-anchor:middle;fill:#aa66cc;fill-opacity:1;-inkscape-font-specification:Roboto Slab"
   id="tspan3781">ELEMENT</tspan>S</tspan></text>
  </g>
  <g
     inkscape:groupmode="layer"
     id="layer4"
     inkscape:label="Layer#2"
     transform="translate(0,-62.3622)">
    <text
       xml:space="preserve"
       style="font-size:40px;font-style:normal;font-variant:normal;font-weight:normal;font-stretch:normal;line-height:125%;letter-spacing:0px;word-spacing:0px;fill:#000000;fill-opacity:1;stroke:none;font-family:Exo;-inkscape-font-specification:Exo"
       x="377.32144"
       y="501.02289"
       id="text4124"
       sodipodi:linespacing="125%"><tspan
         sodipodi:role="line"
         id="tspan4126"
         x="377.32144"
         y="501.02289" /></text>
    <g
       id="g4191"
       transform="translate(-83.20581,3.8240315)">
      <g
         transform="matrix(13.891986,0,0,13.891986,-3493.5102,-5037.9061)"
         id="g4092">
        <path
           style="fill:#ff4444;fill-opacity:1;stroke:#ffffff;stroke-width:1px;stroke-linecap:butt;stroke-linejoin:miter;stroke-opacity:1"
           d="m 275,387.36218 5,10 5,-10 -5,-10 z"
           id="path3143"
           inkscape:connector-curvature="0" />
        <path
           style="fill:#99cc00;fill-opacity:1;stroke:#ffffff;stroke-width:1px;stroke-linecap:butt;stroke-linejoin:miter;stroke-opacity:1"
           d="m 280,397.36218 5,-10 5,10 -5,10 z"
           id="path3917"
           inkscape:connector-curvature="0" />
      </g>
      <path
         transform="matrix(13.891986,0,0,13.891986,-3944.9998,-6461.8346)"
         d="m 320,499.86218 c 0,1.38071 -1.11929,2.5 -2.5,2.5 -1.38071,0 -2.5,-1.11929 -2.5,-2.5 0,-1.38071 1.11929,-2.5 2.5,-2.5 1.38071,0 2.5,1.11929 2.5,2.5 z"
         sodipodi:ry="2.5"
         sodipodi:rx="2.5"
         sodipodi:cy="499.86218"
         sodipodi:cx="317.5"
         id="path4098"
         style="fill:#ffffff;fill-opacity:1;stroke:none"
         sodipodi:type="arc" />
      <path
         transform="matrix(13.891986,0,0,13.891986,-4014.4597,-6600.7546)"
         sodipodi:type="arc"
         style="fill:#ffffff;fill-opacity:1;stroke:none"
         id="path4104"
         sodipodi:cx="317.5"
         sodipodi:cy="499.86218"
         sodipodi:rx="2.5"
         sodipodi:ry="2.5"
         d="m 320,499.86218 c 0,1.38071 -1.11929,2.5 -2.5,2.5 -1.38071,0 -2.5,-1.11929 -2.5,-2.5 0,-1.38071 1.11929,-2.5 2.5,-2.5 1.38071,0 2.5,1.11929 2.5,2.5 z" />
      <g
         id="g4212">
        <path
           inkscape:connector-curvature="0"
           id="path3915"
           d="m 285,387.36218 5,-10 5,10 -5,10 z"
           style="fill:#33b5e5;fill-opacity:1;stroke:#ffffff;stroke-width:1px;stroke-linecap:butt;stroke-linejoin:miter;stroke-opacity:1"
           transform="matrix(13.891986,0,0,13.891986,-3493.5102,-5037.9061)" />
        <path
           d="m 320,499.86218 c 0,1.38071 -1.11929,2.5 -2.5,2.5 -1.38071,0 -2.5,-1.11929 -2.5,-2.5 0,-1.38071 1.11929,-2.5 2.5,-2.5 1.38071,0 2.5,1.11929 2.5,2.5 z"
           sodipodi:ry="2.5"
           sodipodi:rx="2.5"
           sodipodi:cy="499.86218"
           sodipodi:cx="317.5"
           id="path4100"
           style="fill:#ffffff;fill-opacity:1;stroke:none"
           sodipodi:type="arc"
           transform="matrix(13.891986,0,0,13.891986,-3875.5399,-6600.7546)" />
        <g
           id="g4156"
           transform="matrix(3.0293911,0,0,3.0293911,520.01872,-2819.1322)">
          <path
             transform="matrix(2,0,0,2,-759.99999,97.637844)"
             d="m 385,474.86218 c 0,1.38071 -1.11929,2.5 -2.5,2.5 -1.38071,0 -2.5,-1.11929 -2.5,-2.5 0,-1.38071 1.11929,-2.5 2.5,-2.5 1.38071,0 2.5,1.11929 2.5,2.5 z"
             sodipodi:ry="2.5"
             sodipodi:rx="2.5"
             sodipodi:cy="474.86218"
             sodipodi:cx="382.5"
             id="path4152"
             style="fill:#33b5e5;fill-opacity:1;stroke:none"
             sodipodi:type="arc" />
          <path
             sodipodi:nodetypes="cccccc"
             inkscape:connector-curvature="0"
             id="path4154"
             d="m 0,1047.3622 10,0 0,-1.5833 -5,-10.2917 -5,10.2917 z"
             style="fill:#33b5e5;fill-opacity:1;stroke:none" />
        </g>
      </g>
      <g
         transform="matrix(6.9421372,0,0,4.2447349,-2193.1327,-1694.6065)"
         id="g4170">
        <path
           style="fill:none;stroke:#99cc00;stroke-width:1px;stroke-linecap:butt;stroke-linejoin:miter;stroke-opacity:1"
           d="m 380,-55 5,0 c 0,0 1,0 1,-1 0,-1 -1,-1 -1,-1"
           id="path4160"
           inkscape:connector-curvature="0"
           transform="translate(0,572.3622)" />
        <path
           style="fill:none;stroke:#99cc00;stroke-width:1px;stroke-linecap:butt;stroke-linejoin:miter;stroke-opacity:1"
           d="m 380,513.83539 5,0 c 0,0 1,0 1,-1 0,-1 -1,-1 -1,-1"
           id="path4166"
           inkscape:connector-curvature="0" />
        <path
           inkscape:connector-curvature="0"
           id="path4168"
           d="m 380,510.30863 5,0 c 0,0 1,0 1,-1 0,-1 -1,-1 -1,-1"
           style="fill:none;stroke:#99cc00;stroke-width:1px;stroke-linecap:butt;stroke-linejoin:miter;stroke-opacity:1" />
      </g>
      <g
         id="g4220">
        <path
           inkscape:connector-curvature="0"
           id="path3913"
           d="m 285,387.36218 -5,-10 5,-10 5,10 z"
           style="fill:#ffbb33;fill-opacity:1;stroke:#ffffff;stroke-width:1px;stroke-linecap:butt;stroke-linejoin:miter;stroke-opacity:1"
           transform="matrix(13.891986,0,0,13.891986,-3493.5102,-5037.9061)" />
        <path
           sodipodi:type="arc"
           style="fill:#ffffff;fill-opacity:1;stroke:none"
           id="path4102"
           sodipodi:cx="317.5"
           sodipodi:cy="499.86218"
           sodipodi:rx="2.5"
           sodipodi:ry="2.5"
           d="m 320,499.86218 c 0,1.38071 -1.11929,2.5 -2.5,2.5 -1.38071,0 -2.5,-1.11929 -2.5,-2.5 0,-1.38071 1.11929,-2.5 2.5,-2.5 1.38071,0 2.5,1.11929 2.5,2.5 z"
           transform="matrix(13.891986,0,0,13.891986,-3944.9998,-6739.6744)" />
        <path
           style="fill:#ffbb33;fill-opacity:1;stroke:none"
           d="m 450.72521,175.50378 29.96113,0 c 0,0 0,27.41014 -5.9923,38.53373 -2.96929,-3.41174 -2.99609,-3.21113 -2.99609,-3.21113 0,0 -14.98043,19.26693 -20.97274,22.47806 0.13892,-0.0278 8.98839,-35.32259 8.98839,-38.53372 l 2.99609,3.21113 c 0,0 2.99608,-9.63339 -11.98448,-22.47807 z"
           id="path4175"
           inkscape:connector-curvature="0"
           sodipodi:nodetypes="cccccccc" />
      </g>
      <path
         inkscape:connector-curvature="0"
         id="path4177"
         d="m 397.22398,316.41436 c 0,0 -0.47511,0.47512 -0.68488,0.78213 -0.59873,1.14191 -2.34774,7.79812 -2.34774,11.24931 0,3.45146 -0.978,8.21711 -0.978,8.21711 0,0 -2.69698,3.08805 -3.81487,0.19587 -1.24472,-3.21919 -3.13042,-13.79279 -3.13042,-13.79279 0,0 -2.65518,7.80132 -3.13015,13.79279 -0.50427,6.36518 -2.54348,17.80342 -2.54348,17.80342 0,8.64401 7.00739,15.65141 15.65141,15.65141 8.64401,0 15.65141,-7.0074 15.65141,-15.65141 l -1.85862,-18.39035 -1.56507,-7.53223 c 0,0 -0.26533,-3.62193 -1.17387,-2.54335 -0.90854,1.07802 -1.46727,3.61942 -1.46727,3.61942 0,0 -3.42382,7.06032 -5.38023,5.67363 -1.95641,-1.38642 -1.07663,-4.69549 -1.07663,-4.69549 0,0 -1.53715,-11.74819 -1.46727,-13.59706 -0.27923,-1.23223 -0.68487,-0.78213 -0.68487,-0.78213 z"
         style="fill:#ff4444;fill-opacity:1;stroke:none" />
    </g>
  </g>
</svg>
